Start = 10.000000, duration = 60, magnitude = 100.000000, direction = 180
datacolumns 10
datarows 128
range 20.29343941 20.35
endheader
time	ground_force1_vx	ground_force1_vy	ground_force1_vz	ground_force1_px	ground_force1_py	ground_force1_pz	ground_torque1_x	ground_torque1_y	ground_torque1_z
20.29343941	-3.249714344	3.979752269e-16	0	0	0	0	0	0	0
20.29433862	-3.27209179	4.007156737e-16	0	0	0	0	0	0	0
20.29523783	-3.294469073	4.034561005e-16	0	0	0	0	0	0	0
20.29613705	-3.31684619	4.061965069e-16	0	0	0	0	0	0	0
20.29703626	-3.339223141	4.089368931e-16	0	0	0	0	0	0	0
20.29793547	-3.361599924	4.116772587e-16	0	0	0	0	0	0	0
20.29893109	-3.386375741	4.147114212e-16	0	0	0	0	0	0	0
20.29992672	-3.411151351	4.177455583e-16	0	0	0	0	0	0	0
20.3	-3.412974993	4.1796889e-16	0	0	0	0	0	0	0
20.30000203	-3.413025497	4.179750751e-16	0	0	0	0	0	0	0
20.30000406	-3.413076002	4.179812601e-16	0	0	0	0	0	0	0
20.30001421	-3.413328526	4.180121854e-16	0	0	0	0	0	0	0
20.30006495	-3.414591145	4.181668116e-16	0	0	0	0	0	0	0
20.30031864	-3.420904231	4.189399417e-16	0	0	0	0	0	0	0
20.30085015	-3.434130378	4.205596775e-16	0	0	0	0	0	0	0
20.30138166	-3.447356464	4.22179406e-16	0	0	0	0	0	0	0
20.30210702	-3.465406377	4.243898828e-16	0	0	0	0	0	0	0
20.30283238	-3.483456177	4.266003457e-16	0	0	0	0	0	0	0
20.30373079	-3.505811923	4.29338135e-16	0	0	0	0	0	0	0
20.3046292	-3.528167494	4.320759028e-16	0	0	0	0	0	0	0
20.30552761	-3.550522888	4.34813649e-16	0	0	0	0	0	0	0
20.30642602	-3.572878105	4.375513734e-16	0	0	0	0	0	0	0
20.30732443	-3.595233142	4.40289076e-16	0	0	0	0	0	0	0
20.30822284	-3.617588	4.430267565e-16	0	0	0	0	0	0	0
20.30912125	-3.639942677	4.457644148e-16	0	0	0	0	0	0	0
20.31	-3.661808006	4.484421454e-16	0	0	0	0	0	0	0
20.31000178	-3.661852287	4.484475682e-16	0	0	0	0	0	0	0
20.31000356	-3.661896567	4.48452991e-16	0	0	0	0	0	0	0
20.31001246	-3.66211797	4.48480105e-16	0	0	0	0	0	0	0
20.31005695	-3.663224985	4.486156752e-16	0	0	0	0	0	0	0
20.3102794	-3.668760051	4.492935254e-16	0	0	0	0	0	0	0
20.31065944	-3.678216364	4.504515896e-16	0	0	0	0	0	0	0
20.31112996	-3.689923769	4.518853333e-16	0	0	0	0	0	0	0
20.31172299	-3.704679518	4.536923914e-16	0	0	0	0	0	0	0
20.31243597	-3.722419503	4.55864913e-16	0	0	0	0	0	0	0
20.31314894	-3.740159371	4.580374202e-16	0	0	0	0	0	0	0
20.31391196	-3.759144373	4.603624124e-16	0	0	0	0	0	0	0
20.31467498	-3.77812924	4.62687388e-16	0	0	0	0	0	0	0
20.31580228	-3.80617768	4.661223313e-16	0	0	0	0	0	0	0
20.31692959	-3.83422582	4.695572378e-16	0	0	0	0	0	0	0
20.31784148	-3.856914133	4.723357547e-16	0	0	0	0	0	0	0
20.31875337	-3.879602246	4.751142473e-16	0	0	0	0	0	0	0
20.31966527	-3.90229016	4.778927154e-16	0	0	0	0	0	0	0
20.32	-3.910618318	4.789126206e-16	0	0	0	0	0	0	0
20.32000125	-3.910649537	4.789164438e-16	0	0	0	0	0	0	0
20.32000251	-3.910680756	4.789202671e-16	0	0	0	0	0	0	0
20.32000878	-3.910836852	4.789393833e-16	0	0	0	0	0	0	0
20.32004015	-3.911617332	4.790349645e-16	0	0	0	0	0	0	0
20.320197	-3.915519728	4.795128701e-16	0	0	0	0	0	0	0
20.32051205	-3.923357951	4.804727756e-16	0	0	0	0	0	0	0
20.32109453	-3.937849877	4.822475247e-16	0	0	0	0	0	0	0
20.32167701	-3.95234172	4.840222637e-16	0	0	0	0	0	0	0
20.3226517	-3.976591451	4.869919992e-16	0	0	0	0	0	0	0
20.3236264	-4.000840947	4.89961706e-16	0	0	0	0	0	0	0
20.32460109	-4.025090208	4.929313839e-16	0	0	0	0	0	0	0
20.32557579	-4.049339231	4.959010328e-16	0	0	0	0	0	0	0
20.32655048	-4.073588016	4.988706525e-16	0	0	0	0	0	0	0
20.32752518	-4.097836561	5.018402428e-16	0	0	0	0	0	0	0
20.32828006	-4.116616401	5.041401099e-16	0	0	0	0	0	0	0
20.32903494	-4.135396095	5.064399591e-16	0	0	0	0	0	0	0
20.32978982	-4.154175643	5.087397905e-16	0	0	0	0	0	0	0
20.33	-4.159404386	5.093801268e-16	0	0	0	0	0	0	0
20.33000135	-4.159438047	5.09384249e-16	0	0	0	0	0	0	0
20.33000271	-4.159471708	5.093883713e-16	0	0	0	0	0	0	0
20.33000947	-4.159640012	5.094089826e-16	0	0	0	0	0	0	0
20.3300433	-4.160481532	5.095120391e-16	0	0	0	0	0	0	0
20.33021243	-4.164689129	5.100273211e-16	0	0	0	0	0	0	0
20.33071175	-4.177110726	5.115485281e-16	0	0	0	0	0	0	0
20.33121106	-4.189532259	5.130697271e-16	0	0	0	0	0	0	0
20.33187522	-4.206054477	5.150931152e-16	0	0	0	0	0	0	0
20.33271251	-4.226883411	5.176439239e-16	0	0	0	0	0	0	0
20.33375248	-4.252754192	5.208121808e-16	0	0	0	0	0	0	0
20.3338996	-4.25641414	5.212603953e-16	0	0	0	0	0	0	0
20.33398847	-4.2586248	5.21531123e-16	0	0	0	0	0	0	0
20.33408733	-4.261084139	5.218323051e-16	0	0	0	0	0	0	0
20.33417738	-4.263324266	5.221066417e-16	0	0	0	0	0	0	0
20.33420562	-4.264026673	5.221926616e-16	0	0	0	0	0	0	0
20.33422032	-4.26439245	5.222374564e-16	0	0	0	0	0	0	0
20.3342305	-4.264645744	5.22268476e-16	0	0	0	0	0	0	0
20.33423878	-4.264851648	5.22293692e-16	0	0	0	0	0	0	0
20.33423988	-4.264879098	5.222970536e-16	0	0	0	0	0	0	0
20.33424099	-4.264906548	5.223004153e-16	0	0	0	0	0	0	0
20.3342465	-4.265043798	5.223172235e-16	0	0	0	0	0	0	0
20.33427409	-4.265730045	5.224012645e-16	0	0	0	0	0	0	0
20.33441202	-4.269161278	5.228214694e-16	0	0	0	0	0	0	0
20.33510169	-4.286317369	5.249224846e-16	0	0	0	0	0	0	0
20.33579135	-4.303473334	5.270234843e-16	0	0	0	0	0	0	0
20.33648101	-4.320629171	5.291244685e-16	0	0	0	0	0	0	0
20.33717067	-4.337784881	5.31225437e-16	0	0	0	0	0	0	0
20.33786033	-4.354940464	5.333263899e-16	0	0	0	0	0	0	0
20.33854999	-4.372095918	5.354273271e-16	0	0	0	0	0	0	0
20.33923965	-4.389251242	5.375282485e-16	0	0	0	0	0	0	0
20.33992932	-4.406406438	5.39629154e-16	0	0	0	0	0	0	0
20.34	-4.408164668	5.39844475e-16	0	0	0	0	0	0	0
20.34000039	-4.408174457	5.398456739e-16	0	0	0	0	0	0	0
20.34000079	-4.408184246	5.398468727e-16	0	0	0	0	0	0	0
20.34000275	-4.408233193	5.398528669e-16	0	0	0	0	0	0	0
20.34001259	-4.408477926	5.398828381e-16	0	0	0	0	0	0	0
20.34006179	-4.409701589	5.400326937e-16	0	0	0	0	0	0	0
20.34030775	-4.415819898	5.407819704e-16	0	0	0	0	0	0	0
20.34062422	-4.423691994	5.417460241e-16	0	0	0	0	0	0	0
20.3407017	-4.425619074	5.419820234e-16	0	0	0	0	0	0	0
20.3407677	-4.427260769	5.42183073e-16	0	0	0	0	0	0	0
20.34078679	-4.427735682	5.422412331e-16	0	0	0	0	0	0	0
20.34080371	-4.428156685	5.42292791e-16	0	0	0	0	0	0	0
20.34081261	-4.428377942	5.423198872e-16	0	0	0	0	0	0	0
20.3408188	-4.428532079	5.423387635e-16	0	0	0	0	0	0	0
20.34082069	-4.428578963	5.423445052e-16	0	0	0	0	0	0	0
20.34082139	-4.428596334	5.423466325e-16	0	0	0	0	0	0	0
20.34082209	-4.428613705	5.423487598e-16	0	0	0	0	0	0	0
20.34082558	-4.428700558	5.423593963e-16	0	0	0	0	0	0	0
20.34084304	-4.429134827	5.424125789e-16	0	0	0	0	0	0	0
20.34093033	-4.43130617	5.426784917e-16	0	0	0	0	0	0	0
20.34136679	-4.442162853	5.44008052e-16	0	0	0	0	0	0	0
20.34189697	-4.455350648	5.45623091e-16	0	0	0	0	0	0	0
20.34242715	-4.468538364	5.472381205e-16	0	0	0	0	0	0	0
20.34316868	-4.486983097	5.494969488e-16	0	0	0	0	0	0	0
20.3439102	-4.505427677	5.517557584e-16	0	0	0	0	0	0	0
20.34455839	-4.521550208	5.53730199e-16	0	0	0	0	0	0	0
20.34520657	-4.537672622	5.557046252e-16	0	0	0	0	0	0	0
20.34585475	-4.553794917	5.576790369e-16	0	0	0	0	0	0	0
20.34650293	-4.569917094	5.596534342e-16	0	0	0	0	0	0	0
20.34715111	-4.586039152	5.616278168e-16	0	0	0	0	0	0	0
20.34779929	-4.60216109	5.636021848e-16	0	0	0	0	0	0	0
20.34844747	-4.618282908	5.655765381e-16	0	0	0	0	0	0	0
20.34909565	-4.634404606	5.675508767e-16	0	0	0	0	0	0	0
20.34974383	-4.650526184	5.695252005e-16	0	0	0	0	0	0	0
20.35	-4.65689762	5.703054765e-16	0	0	0	0	0	0	0
